<svg width="171.7609375" height="80" viewBox="0 0 171.7609375 80" xmlns="http://www.w3.org/2000/svg">
  <defs>
    <linearGradient id="gradient" x1="0%" y1="0%" x2="100%" y2="0%">
      <stop offset="0%" style="stop-color:#9333ea;stop-opacity:1" />
      <stop offset="100%" style="stop-color:#2563eb;stop-opacity:1" />
    </linearGradient>
  </defs>
  <g transform="translate(20, 0) skewX(-2)">
    <path d="M47.15625 33.1875V33.5390625Q47.0859375 34.59375 46.8046875 36.43359375Q46.5234375 38.2734375 46.171875 38.71875Q45.9609375 38.9765625 45.75 38.9765625Q45.515625 38.9765625 45.375 38.625Q44.7890625 37.171875 42.08203125 36.52734375Q39.375 35.8828125 34.9921875 35.8828125Q28.8515625 35.8828125 20.859375 37.0546875Q21.7734375 38.0390625 21.7734375 39.3984375Q21.7734375 40.6875 21.08203125 42.140625Q20.390625 43.59375 19.0078125 45.796875Q18.796875 46.1484375 18.703125 46.3125Q16.6640625 49.640625 15.12890625 52.62890625Q13.59375 55.6171875 12.64453125 58.5234375Q11.6953125 61.4296875 11.6953125 63.890625Q11.6953125 67.1484375 13.5 69.28125Q13.9921875 69.8671875 13.9921875 70.5Q13.9921875 71.015625 13.59375 71.40234375Q13.1953125 71.7890625 12.328125 71.90625Q11.9765625 71.953125 11.5078125 71.953125Q9.46875 71.953125 6.1171875 71.1328125Q0.9140625 69.84375 0.9140625 64.828125Q0.9140625 58.6171875 9.0 46.78125Q8.1796875 46.9453125 7.359375 46.9453125Q5.484375 46.9453125 3.7734375 46.078125Q2.0625 45.2109375 0.8671875 43.640625Q0.0 42.5390625 0.0 41.25Q0.0 39.8203125 1.078125 38.484375Q2.15625 37.1484375 4.171875 36.28125Q8.390625 34.453125 15.62109375 32.84765625Q22.8515625 31.2421875 30.3984375 30.28125Q37.9453125 29.3203125 42.890625 29.296875Q44.71875 29.296875 45.9375 30.1640625Q47.15625 31.03125 47.15625 33.1875ZM14.1796875 39.5625Q14.5546875 39.09375 15.09375 38.34375Q15.2578125 38.109375 15.328125 37.9921875Q12.2109375 38.578125 9.984375 39.140625Q8.1796875 39.515625 7.30078125 40.39453125Q6.421875 41.2734375 6.421875 42.3046875Q6.421875 43.2421875 7.1015625 43.9453125Q7.78125 44.6484375 8.765625 44.6484375Q9.5625 44.6484375 10.4296875 44.09765625Q11.296875 43.546875 12.1171875 42.375Q13.2890625 40.8046875 14.1796875 39.5625Z M52.61625 53.1796875Q53.3896875 53.1796875 53.94046875 53.68359375Q54.49125 54.1875 54.49125 55.03125Q54.49125 55.8515625 53.92875 56.7890625Q51.256875 61.1484375 48.59671875 64.453125Q45.9365625 67.7578125 43.0771875 69.87890625Q40.2178125 72.0 37.6865625 72.0234375H37.5459375Q34.4990625 72.0234375 33.1396875 70.53515625Q31.7803125 69.046875 31.7803125 66.5859375Q31.7803125 65.15625 32.2021875 63.5390625Q32.6240625 61.921875 33.3271875 60.3984375L36.0459375 55.5Q37.5459375 52.9453125 37.5459375 51.7734375Q37.5459375 50.9296875 36.7959375 50.9296875Q35.8584375 50.9296875 34.1709375 52.2421875Q32.4834375 53.5546875 31.24125 55.3828125Q29.2959375 58.4296875 28.1475 60.4453125Q26.8115625 62.8359375 26.038125 65.16796875Q25.2646875 67.5 25.2646875 69.2109375Q25.2646875 70.40625 25.663125 71.15625Q25.7803125 71.390625 25.7803125 71.578125Q25.7803125 72.046875 25.0771875 72.046875Q21.21 72.046875 19.4053125 70.8046875Q17.600625 69.5625 17.600625 67.125Q17.600625 65.6015625 18.2334375 63.6796875Q18.86625 61.7578125 20.0615625 59.42578125Q21.256875 57.09375 22.99125 54.28125Q23.2959375 53.8125 23.9053125 52.8046875Q26.7178125 48.3515625 28.53421875 45.22265625Q30.350625 42.09375 31.663125 38.9296875Q32.975625 35.765625 32.975625 33.4921875Q32.975625 32.90625 32.881875 32.4140625Q32.8115625 31.9921875 32.413125 31.21875Q32.0615625 30.46875 32.0615625 30.1875Q32.0615625 29.6015625 33.1396875 29.4375Q33.8428125 29.34375 34.5225 29.34375Q37.1475 29.34375 39.069375 30.703125Q41.694375 32.34375 41.694375 35.3203125Q41.694375 37.3359375 40.58109375 39.9375Q39.4678125 42.5390625 37.381875 45.9140625Q39.21 44.0859375 41.21390625 42.8671875Q43.2178125 41.6484375 44.92875 41.6484375Q45.256875 41.6484375 45.585 41.6953125Q49.475625 42.3046875 49.475625 45.75Q49.475625 47.3671875 48.69046875 49.25390625Q47.9053125 51.140625 46.7803125 52.78125Q45.9365625 54.0234375 43.9209375 56.4375Q42.725625 57.8671875 42.0459375 58.7578125Q41.36625 59.6484375 40.9678125 60.4453125Q40.3115625 61.640625 40.3115625 62.4375Q40.3115625 62.953125 40.5928125 63.2109375Q40.8740625 63.46875 41.3896875 63.46875Q42.0225 63.46875 42.87796875 63.046875Q43.7334375 62.625 44.55375 61.875Q47.9990625 58.3828125 50.4365625 54.5859375Q50.835 53.8828125 51.40921875 53.53125Q51.9834375 53.1796875 52.61625 53.1796875Z M82.404375 53.15625Q83.1778125 53.15625 83.72859375 53.66015625Q84.279375 54.1640625 84.279375 55.0078125Q84.279375 55.8046875 83.716875 56.7421875Q82.1934375 59.4140625 79.58015625 60.9375Q76.966875 62.4609375 74.3184375 62.4609375Q73.4746875 62.4609375 72.70125 62.296875Q70.8965625 65.1328125 68.44734375 67.3359375Q65.998125 69.5390625 63.2559375 70.76953125Q60.51375 72.0 57.9121875 72.0Q55.2871875 72.0 53.35359375 70.76953125Q51.42 69.5390625 50.37703125 67.32421875Q49.3340625 65.109375 49.3340625 62.2734375Q49.3340625 59.625 50.248125 56.7421875Q51.935625 51.796875 55.1934375 48.140625Q56.7871875 46.2890625 58.0996875 46.2890625Q58.8965625 46.2890625 59.35359375 46.96875Q59.810625 47.6484375 59.810625 48.8203125Q59.810625 49.0546875 59.7871875 49.2890625Q60.0684375 46.0546875 62.1309375 43.78125Q64.1934375 41.5078125 67.685625 41.5078125Q70.6621875 41.5078125 72.64265625 42.83203125Q74.623125 44.15625 75.57234375 46.359375Q76.5215625 48.5625 76.5215625 51.2109375Q76.5215625 53.109375 76.04109375 55.03125Q75.560625 56.953125 74.6465625 58.6171875Q76.0996875 58.359375 77.54109375 57.36328125Q78.9825 56.3671875 80.2246875 54.5390625Q80.5996875 53.859375 81.185625 53.5078125Q81.7715625 53.15625 82.404375 53.15625ZM65.8575 60.890625Q63.091875 59.4375 61.5215625 56.77734375Q59.95125 54.1171875 59.76375 51.1171875Q57.7715625 53.484375 57.091875 55.6171875Q56.6934375 56.90625 56.6934375 58.3125Q56.6934375 60.421875 57.6778125 61.875Q58.6621875 63.328125 60.7246875 63.328125Q63.3496875 63.328125 65.8575 60.890625ZM69.6075 53.015625Q69.6075 51.421875 68.93953125 50.63671875Q68.2715625 49.8515625 67.2871875 49.8515625Q66.2325 49.8515625 65.38875 50.63671875Q64.545 51.421875 64.545 52.6171875Q64.545 53.578125 65.2246875 54.64453125Q65.904375 55.7109375 67.3575 56.765625Q68.0840625 57.28125 68.3653125 57.28125Q68.5996875 57.28125 68.72859375 57.0234375Q68.8575 56.765625 69.091875 56.0625Q69.1621875 55.828125 69.2090625 55.6875Q69.6075 54.1875 69.6075 53.015625Z M90.958125 48.9375Q90.958125 48.3984375 90.63 48.03515625Q90.301875 47.671875 89.8565625 47.671875Q89.1534375 47.671875 88.708125 48.5390625Q86.4815625 52.9453125 84.16125 56.765625Q83.41125 57.9609375 82.1925 57.9609375Q81.3721875 57.9609375 80.7628125 57.38671875Q80.1534375 56.8125 80.1534375 55.9921875Q80.1534375 55.2890625 80.645625 54.5859375Q82.09875 52.3359375 83.09484375 49.8984375Q84.0909375 47.4609375 84.0909375 45.2578125Q84.0909375 42.140625 81.864375 40.265625Q81.489375 39.890625 81.489375 39.4453125Q81.489375 38.7421875 82.29796875 38.07421875Q83.1065625 37.40625 83.8565625 37.1484375Q84.958125 36.7734375 86.083125 36.7734375Q87.4425 36.7734375 88.60265625 37.2890625Q89.7628125 37.8046875 90.4425 38.66015625Q91.1221875 39.515625 91.1221875 40.5234375Q91.1221875 40.828125 91.051875 41.15625Q92.13 40.875 93.208125 40.875Q95.739375 40.875 97.6846875 42.28125Q100.5675 44.34375 100.5675 47.2265625Q100.5675 49.265625 99.395625 51.38671875Q98.22375 53.5078125 96.020625 56.53125Q94.4034375 58.640625 93.4425 60.3984375Q92.78625 61.59375 92.78625 62.390625Q92.78625 62.90625 93.0675 63.1640625Q93.34875 63.421875 93.864375 63.421875Q94.4971875 63.421875 95.35265625 63.0Q96.208125 62.578125 97.0284375 61.828125Q100.5675 58.2421875 102.91125 54.5390625Q103.28625 53.859375 103.8721875 53.5078125Q104.458125 53.15625 105.0909375 53.15625Q105.864375 53.15625 106.426875 53.66015625Q106.989375 54.1640625 106.989375 54.984375Q106.989375 55.8046875 106.4034375 56.7421875Q103.755 61.1015625 101.0128125 64.48828125Q98.270625 67.875 95.4815625 69.92578125Q92.6925 71.9765625 90.16125 72.0H90.0440625Q86.9971875 72.0 85.62609375 70.51171875Q84.255 69.0234375 84.255 66.5625Q84.255 65.109375 84.68859375 63.4921875Q85.1221875 61.875 85.8253125 60.3515625L90.770625 49.6875Q90.958125 49.3125 90.958125 48.9375Z M133.8009375 53.1796875Q134.574375 53.1796875 135.136875 53.68359375Q135.699375 54.1875 135.699375 55.03125Q135.699375 55.8515625 135.1134375 56.7890625Q132.465 61.1484375 129.7228125 64.53515625Q126.980625 67.921875 124.1915625 69.97265625Q121.4025 72.0234375 118.87125 72.046875H118.7540625Q115.7071875 72.046875 114.3478125 70.546875Q112.9884375 69.046875 112.9884375 66.5859375Q112.9884375 65.15625 113.4103125 63.5390625Q113.8321875 61.921875 114.5353125 60.3984375L117.2540625 55.5Q118.0509375 54.140625 118.4259375 53.19140625Q118.8009375 52.2421875 118.8009375 51.703125Q118.8009375 50.953125 118.168125 50.953125Q117.2775 50.953125 115.64859375 52.2890625Q114.0196875 53.625 112.7775 55.4765625Q112.3321875 56.109375 111.4884375 57.3046875Q109.8009375 59.6953125 109.3790625 60.4453125Q108.043125 62.953125 107.25796875 65.2734375Q106.4728125 67.59375 106.4728125 69.2578125Q106.4728125 70.4296875 106.87125 71.15625Q106.9884375 71.390625 106.9884375 71.578125Q106.9884375 72.046875 106.2853125 72.046875Q102.2775 72.046875 100.543125 70.69921875Q98.80875 69.3515625 98.80875 66.9609375Q98.80875 64.4296875 100.730625 60.234375Q101.1759375 59.25 103.2853125 55.8046875Q106.0040625 51.328125 107.56265625 48.29296875Q109.12125 45.2578125 109.12125 43.4765625Q109.12125 42.9140625 108.93375 42.5390625Q108.793125 42.28125 108.793125 42.0703125Q108.793125 41.5546875 109.59 41.5546875Q117.09 41.5546875 117.09 45.984375V46.03125Q121.0275 41.5546875 124.5196875 41.5546875Q126.7228125 41.5546875 128.105625 42.85546875Q129.4884375 44.15625 129.4884375 46.453125Q129.4884375 48.2578125 128.574375 50.4375Q127.9884375 51.8203125 127.0978125 53.203125Q126.2071875 54.5859375 124.7540625 56.578125Q123.136875 58.7109375 122.1759375 60.4453125Q121.5196875 61.640625 121.5196875 62.4375Q121.5196875 62.953125 121.8009375 63.2109375Q122.0821875 63.46875 122.574375 63.46875Q123.230625 63.46875 124.074375 63.046875Q124.918125 62.625 125.7384375 61.875Q129.2071875 58.40625 131.62125 54.5859375Q132.0196875 53.8828125 132.59390625 53.53125Q133.168125 53.1796875 133.8009375 53.1796875Z" fill="url(#gradient)" />
  </g>
</svg>